<svg xmlns="http://www.w3.org/2000/svg" width="336.792" height="103.928" viewBox="0 0 336.792 103.928">
  <g id="レイヤー_1" data-name="レイヤー 1" transform="translate(-0.01 0.008)">
    <g id="グループ_1035" data-name="グループ 1035" transform="translate(0.01 -0.008)">
      <g id="グループ_1030" data-name="グループ 1030" transform="translate(126.358 73.107)">
        <path id="パス_1664" data-name="パス 1664" d="M946.7,675.91a6.873,6.873,0,0,1-2.661-4.8c-.317-3.985,3.029-6.939,6.655-7.171,4.117-.262,7.385,2.273,7.655,6.539a10.01,10.01,0,0,1-3.249,7.853l-1.318-.515c2.451-2.555,3.368-4.969,3.219-7.316-.166-2.6-1.956-5.488-6.161-5.285a5.53,5.53,0,0,0-5.521,5.813,4.356,4.356,0,0,0,1.363,2.913l4.645-5.115.875.973c-3.107,3.346-4.966,5.434-5.5,6.112Z" transform="translate(-944.014 -648.159)" fill="#fff"/>
        <path id="パス_1665" data-name="パス 1665" d="M1119.971,649.9a16.854,16.854,0,0,1-3.179.523l-.522-8.213,1.344-.086.434,6.827a6.93,6.93,0,0,0,1.9-.378Zm2.787,9.14-1.312-.41a18.245,18.245,0,0,0,3.028-12.016c-.1-1.494-.363-3.34-.715-5.524l1.316-.19a46.5,46.5,0,0,1,.754,5.8C1126.12,651.287,1125.324,655.6,1122.758,659.04Z" transform="translate(-1093.213 -628.219)" fill="#fff"/>
        <path id="パス_1666" data-name="パス 1666" d="M1287.636,647.306l-1.31-.41a13.6,13.6,0,0,0,1.264-2.693l-8.213.522-.086-1.344,10.091-.641a15.251,15.251,0,0,1-1.744,4.566Zm2.635,9.449a24.487,24.487,0,0,1-3.82.564,9.745,9.745,0,0,1-4.53-.5,3.623,3.623,0,0,1-2.16-3.654l1.28-.082a2.489,2.489,0,0,0,1.779,2.715,9.888,9.888,0,0,0,3.59.2,29.092,29.092,0,0,0,3.713-.557C1290.129,655.543,1290.262,656.606,1290.271,656.755Z" transform="translate(-1234.412 -629.812)" fill="#fff"/>
        <path id="パス_1667" data-name="パス 1667" d="M1424.846,645.52a6.873,6.873,0,0,1-2.661-4.8c-.317-3.985,3.029-6.939,6.655-7.171,4.117-.262,7.385,2.273,7.655,6.539a10.007,10.007,0,0,1-3.25,7.853l-1.318-.515c2.451-2.555,3.368-4.969,3.219-7.316-.166-2.6-1.956-5.488-6.163-5.285a5.53,5.53,0,0,0-5.521,5.813,4.355,4.355,0,0,0,1.363,2.913l4.645-5.115.875.973c-3.107,3.346-4.966,5.434-5.5,6.112Z" transform="translate(-1358.162 -621.836)" fill="#fff"/>
        <path id="パス_1668" data-name="パス 1668" d="M1603.474,636.884l-10.71.68-.082-1.28,9.323-.593c-.021-3.04-.029-6.531-.3-10.734l-9.877.628-.082-1.28,11.264-.716c.2,3.2.378,7.623.459,13.294Z" transform="translate(-1505.048 -613.226)" fill="#fff"/>
        <path id="パス_1669" data-name="パス 1669" d="M1762.864,626.754l-10.71.68-.082-1.28,9.323-.593c-.021-3.04-.029-6.531-.3-10.734l-9.877.628-.082-1.28,11.264-.716c.2,3.2.377,7.623.459,13.293Z" transform="translate(-1643.103 -604.452)" fill="#fff"/>
        <path id="パス_1670" data-name="パス 1670" d="M1899.309,595.074l-3.563.226a45.327,45.327,0,0,1-1.456,8.425l-1.4-.1a44.68,44.68,0,0,0,1.575-8.24l-2.88.183-.086-1.344,3.029-.193c.107-1.013.146-2.087.178-3.267l1.332.066c-.042,1.031-.091,1.933-.166,3.116l3.349-.213.086,1.344Zm6.014,12.727c-2.243.079-3.638-.625-4.283-2.363l1.214-.442c.434,1.087,1.388,1.625,3.095,1.516a6.728,6.728,0,0,0,1.945-.4l.088,1.387A7,7,0,0,1,1905.323,607.8Zm.866-7.274-1.293-.133a7.971,7.971,0,0,0,.727-2.039l-3.947.25-.084-1.322,5.547-.352a8.526,8.526,0,0,1-.949,3.594Zm-1.219-5.706c-.565-.456-1.064-.9-1.624-1.289l.7-.751c.6.389,1.12.786,1.571,1.143l-.649.9Zm1.4-1.587a15.907,15.907,0,0,0-1.624-1.289l.7-.751a10.208,10.208,0,0,1,1.571,1.142Z" transform="translate(-1764.676 -584.79)" fill="#fff"/>
        <path id="パス_1671" data-name="パス 1671" d="M2052.54,594.216l-.66-10.39,1.28-.082.562,8.853a12.132,12.132,0,0,0,2.337-.962l.251,1.269a13.7,13.7,0,0,1-3.772,1.31Zm15.994-9.52-2.091.133a20.708,20.708,0,0,1-2.031,12.531l-1.4-.167a19.525,19.525,0,0,0,2.111-12.278l-5.184.329-.086-1.344,5.12-.325c-.174-1.06-.356-2.226-.65-3.494l1.337-.191c.23,1.27.48,2.5.657,3.6l2.134-.135.086,1.344Z" transform="translate(-1903.588 -575.375)" fill="#fff"/>
        <path id="パス_1672" data-name="パス 1672" d="M2221.766,594.87a6.873,6.873,0,0,1-2.661-4.8c-.317-3.985,3.029-6.939,6.655-7.171,4.117-.262,7.385,2.273,7.655,6.539a10.009,10.009,0,0,1-3.249,7.853l-1.319-.515c2.451-2.555,3.368-4.969,3.219-7.316-.166-2.6-1.956-5.488-6.161-5.285a5.53,5.53,0,0,0-5.521,5.813,4.356,4.356,0,0,0,1.363,2.913l4.645-5.115.875.973c-3.107,3.346-4.966,5.434-5.5,6.112Z" transform="translate(-2048.412 -577.966)" fill="#fff"/>
        <path id="パス_1673" data-name="パス 1673" d="M2363.86,551.1l6.187-.393.084,1.322-6.187.393Zm1.226,10.182,4.97-.316.3,4.757-4.97.316Zm3.481-5.876-2.561.163-.082-1.28,2.561-.163Zm-2.535,2.239,2.624-.167.086,1.344-2.624.167Zm1.515-8.172-1.28.082-.135-2.134,1.28-.082Zm-.965,15.14,2.347-.149-.131-2.069-2.346.149Zm11.573-8.318.23,3.626,2.2-.139.344,5.418-5.611.356-.344-5.418,2.134-.135-.23-3.626-5.44.345-.085-1.344,5.44-.345-.244-3.84,1.28-.082.244,3.84,4.652-.3.086,1.344Zm-4.434-5.073-.882-1.079a13.168,13.168,0,0,0,4.737-3.985l1.057.79a13.626,13.626,0,0,1-4.912,4.275Zm2.676,10.09.181,2.838,2.922-.186-.181-2.838Z" transform="translate(-2173.809 -546.16)" fill="#fff"/>
      </g>
      <g id="グループ_1034" data-name="グループ 1034" transform="translate(0)">
        <path id="パス_1674" data-name="パス 1674" d="M762.99,199.01a5.55,5.55,0,0,1,1.091,2.349c.149,2.048-1.478,8.688-2.1,11.007-1.041,3.906-2.235,7.931-5.191,10.86-1.264.316-1.328-1.948-1.249-2.74-6.772-.023-13.554,2.211-19.8,4.65-1.589.621-2.511,2.393-4.634.647-3.207-2.64-4.256-10.683-4.678-14.711-.232-2.211-.689-6.707-.625-8.731.062-1.929,2.056-2.949,3.647-3.688,7.342-3.408,23.963-4.178,31.3-.858a10.025,10.025,0,0,1,2.229,1.214Zm-20.4-.673c-2.87.331-10.908,1.634-12.19,4.353a24.213,24.213,0,0,0-.4,4.993c-.027,2.3.07,5.148.288,7.432.126,1.313.775,7.254,1.949,7.563,6.378-2.176,12.96-4.2,19.73-4.754,1.231-.1,2.953.954,4.208-.207.989-.768,3.863-12.462,4.182-14.48.178-1.124.713-2.57-.015-3.522-1.816-2.375-14.649-1.733-17.753-1.375Z" transform="translate(-628.654 -169.473)" fill="#fff"/>
        <g id="グループ_1031" data-name="グループ 1031" transform="translate(292.575)">
          <path id="パス_1675" data-name="パス 1675" d="M2259.224,154.028l-4.785,1.383c-.63.646-.217,1.752-.586,2.6s-2.751,2.47-2.985,3.779c-.147.826.324.683.922.525,1.47-.387,3.128-2.258,4.756-2.8,3.443-1.147,6.814.566,6.258,4.467-2.158.141-2.249-2.616-4.534-2.388a27.417,27.417,0,0,0-3.959,2.044c-1.8,1.335-.284,2.209.806,3.464l4.906.468c.473,2.383-3.507,1.786-4.2,3.176l.221,5.57c4.186-.023,8.327-1.3,12.537-.806a2.943,2.943,0,0,1,2.575,1.6c-7.176.862-15.575,1.743-22.262,4.584-1.764.75-3.582,3.2-5.2.8-.838-1.238,1.266-2.439,2.262-2.949,1.316-.675,5.1-1.328,5.616-1.74.814-.648,1.985-4.958.643-5.9l-5.513,1.992c-.6,0-2.05-.862-2.166-1.407-.41-1.9,6.914-2.8,7.163-4.341l-.582-1.822c-1.791-.534-3.842-.383-4.717-2.46-.732-1.74,1.005-2.74.8-4-.146-.9-1.911-1.782-1.452-3.179.475-1.448,8.6-4.408,10.192-4.554,1.091-.1,3.385.444,3.289,1.9Z" transform="translate(-2235.774 -131.76)" fill="#fff"/>
          <path id="パス_1676" data-name="パス 1676" d="M2219.068,22.536c-1.229,1.008-2.709.309-2.574-1.2.237-2.654,5.421-7.533,4.219-11.134-.485-1.412-4.041-1.123-5.3-1.056-4.8.254-17.52,3.021-21.411,5.63-1.715,1.15-2.807,3.321-4.567,4.58.128,1.593-.394,3.138-.491,4.688-.06.952.7,3.552-.2,3.783a2.473,2.473,0,0,1-1.75-.605c-2.459-2.186-.59-13.4.835-16.432,1.673-1.063,3.273,1.353,3.713,1.4a18.3,18.3,0,0,0,3.289-1.165c1.459-1.339.81-10.549,2.336-11.007.5-.151,2.27.4,2.482,1.02.818,1.613-1.936,7.888-.087,8.468,6.149-.787,12.318-3.1,18.6-2.322,6.545.812,6.782,4.969,4.277,10.178a43.474,43.474,0,0,1-3.369,5.173Z" transform="translate(-2185.794 0.008)" fill="#fff"/>
        </g>
        <path id="パス_1677" data-name="パス 1677" d="M34.879,266.673l2.329,1.281c-2.847,2.507-6.9,1.344-10.317,1.753-6.512.782-14.28,3.077-19.462,7.112-.97,0-3.561-1.733-2.847-2.835,1.688-2.609,13.752-6.109,17.065-6.622,1.571-.244,8.433-.269,9.059-1.09l3.565-24.331c-.282-.932-1.74-1.2-2.6-1.3-7.782-.91-19.671,1.527-26.508,5.4C2.767,247.4,1.6,250.057.01,245c3-.649,5.48-2.877,8.569-3.76,6.867-1.961,13.753-3.653,21.142-3,4.781.42,8.219,1.139,8,6.532-.134,3.364-3.768,20.433-2.844,21.9Z" transform="translate(-0.01 -206.225)" fill="#fff"/>
        <path id="パス_1678" data-name="パス 1678" d="M1139.322,221.947c-1.673-1.675-5.246-2.375-7.255-.944a19.311,19.311,0,0,1-2.784,12.308c-2.38,3.7-5.954,6.267-9.9,2.81-5.762-5.053,1.227-13.818,6.56-16.091,11.845-5.048,22.05,3.318,16.489,15.7-.553,1.231-3.138,5.73-4.566,4.991l-.72-1.132c2.53-4.467,6.6-13.211,2.174-17.639Zm-18.851,13.281c3.4,3.2,7.86-6.139,8.473-8.62.2-.812.8-4.2.2-4.625-2.889-2.017-12.8,9.362-8.668,13.243Z" transform="translate(-967.68 -189.283)" fill="#fff"/>
        <g id="グループ_1032" data-name="グループ 1032" transform="translate(192.096 10.575)">
          <path id="パス_1679" data-name="パス 1679" d="M1590.966,85.706c-.071,3.556-6.119.483-6.752,3.787-.748,3.9.912,5.578,3.186,8.332a34,34,0,0,0,7.536,6.773c.134,1.539-3.792-.869-4.1-1.065-1.914-1.231-3.705-3.739-5.222-4.721a1.666,1.666,0,0,0-1.409-.377c-.5,8.493,1.183,17.641.415,26.068a3.145,3.145,0,0,1-1.024,2.567l-2.167-2.2-.408-25.249-1.219.25-5.148,10.487c-1.035.282-2.183-.881-2.282-1.843-.143-1.4,3.559-8.374,4.461-10.1.894-1.709,4.7-6.824,4.144-8.478-2.538-2.162-7.832,3.67-9.1-1.048l9.135-2.6L1583.2,79l2.143,1.411c.3,1.285-1.455,4.238-.141,5.3h5.766Z" transform="translate(-1553.575 -79)" fill="#fff"/>
          <path id="パス_1680" data-name="パス 1680" d="M1437.405,172.488c-.481-.668-1.826-.77-2.183-2.393-.879-3.986,4.766-12.871,6.345-16.75l2.46,0,.64.574c.356,1.217-2.384,4.186-2.677,5.615-.783,3.823-1.451,14.044-.788,17.714.34,1.887,2.42,2.646,2.289,3.271-.34,1.613-2.893-.054-3.573-.794-2.417-2.629-1.48-5.8-2.511-7.235Z" transform="translate(-1435.129 -143.389)" fill="#fff"/>
        </g>
        <g id="グループ_1033" data-name="グループ 1033" transform="translate(243.408 4.287)">
          <path id="パス_1681" data-name="パス 1681" d="M1977.634,46.8c-.5-1.622-8.51-.138-8.291,2.727l.72.846a19.8,19.8,0,0,1,4.589-.6c.855.063,2.287.269,1.786,1.393-.479,1.075-6.752.937-6.754,3.78,2.462-.071,4.876-1.46,7.32-.431l.238,1.031-8.225,3.722c-4.842-3.555-2.752-14.168-1.613-19.523.316-1.486,1.151-5.465,1.79-6.562,1.387-2.376,5.88-.578,5.655.481l-3.1,1.086c-1.95,6.371,7.406.035,9.055,4.9l-.453,15.439-1.262.6a6.2,6.2,0,0,1-1.458-1.336V46.8Zm-.1-6.465c-1-.978-6.551-.1-6.985,1.369l-.078,2.512,6.776-.584C1977.89,42.832,1978.318,41.108,1977.536,40.339Z" transform="translate(-1946.221 -32.02)" fill="#fff"/>
          <path id="パス_1682" data-name="パス 1682" d="M1830.611,105.669c.375.321.307,1.284.541,1.448.528.369,2.89-.5,3.522,1.044-2.578,2.168-6.009,1.405-5.393,6.181.606.83,3.16-.086,4.39-.023,1.583.082,4.847.838,4.515,2.9a14.517,14.517,0,0,1-2.482,4.3c-.928.549-1.786.233-2.625.557-2.032.782-2.993,1.808-4.615,2.947-.482.339-1.375.284-1.637.546-.333.333-.005,1.519-1.036,1.446-2.336-.167-4.461-8.626-2.985-10.643,4.581,1.011,5.207-5.895.2-3.314l-1.426-1.664c2.423-2.527,6.2-1.6,6.363-6.191A6.172,6.172,0,0,1,1830.611,105.669Zm4.061,11.455c-3.277-.724-8.268.865-9.137,4.552.489.626.5.593,1.2.424a51.12,51.12,0,0,0,4.768-2c1.679-.653,3.193-.175,3.166-2.974Z" transform="translate(-1821.164 -95.365)" fill="#fff"/>
          <path id="パス_1683" data-name="パス 1683" d="M1861.7,302.158a1.4,1.4,0,0,1,.289,1.142c-.315,2.3-1.874,5.025-2.135,7.759a33.2,33.2,0,0,0,.261,4.847c.047,1.744-1.1,1.389-2.105.481-2.242-2.029-1.4-6.828-.7-9.463a31.811,31.811,0,0,1,1.9-4.864c.59-.759,1.713-.116,2.488.1Z" transform="translate(-1851.458 -265.602)" fill="#fff"/>
          <path id="パス_1684" data-name="パス 1684" d="M1963.729,281.119c.826.663,1.9,2.574,3.1,3.46,1.309.97,5.614,2.923,7.138,2.773.4-.04,4.424-2.508,3.645.419-.83,3.121-7.159.829-9.137-.067a15.4,15.4,0,0,1-7.413-7.1,4.026,4.026,0,0,1,2.67.513Z" transform="translate(-1941.974 -247.323)" fill="#fff"/>
          <path id="パス_1685" data-name="パス 1685" d="M1829.6,65.6c-2.416-.871-9.751,8.829-11.131,7.557a19.946,19.946,0,0,1,3.19-4.56c1.053-1.183,4.228-4.511,5.742-4.543.629-.013,2.858.842,2.2,1.547Z" transform="translate(-1818.47 -59.762)" fill="#fff"/>
          <path id="パス_1686" data-name="パス 1686" d="M2094.046,244.474l-1.626-.252a8.464,8.464,0,0,1-1.156-5.321C2095.935,238.619,2093.928,241.394,2094.046,244.474Z" transform="translate(-2054.681 -211.193)" fill="#fff"/>
          <path id="パス_1687" data-name="パス 1687" d="M2037.989,257.138a18.752,18.752,0,0,1,1.305,2.862c-2.057,1.6-3.827-1.282-3.994-3.158.037-.49,2.234-.145,2.69.3Z" transform="translate(-2006.276 -226.542)" fill="#fff"/>
        </g>
        <path id="パス_1688" data-name="パス 1688" d="M393.293,236.008l2.171,1.431c-2.972,2.221-6.832.77-10.194.9-6.409.253-14.16,1.882-19.528,5.409-.945-.079-3.334-1.969-2.554-2.986,1.85-2.411,13.883-4.879,17.152-5.12,1.551-.114,8.241.4,8.916-.353l5.378-23.438c-.2-.93-1.6-1.309-2.432-1.474-7.515-1.5-19.294-.051-26.262,3.192-2.44,1.135-3.785,3.637-4.941-1.416,2.978-.4,5.567-2.376,8.647-2.994,6.847-1.375,13.693-2.484,20.844-1.274,4.629.783,7.921,1.753,7.29,6.994C397.387,218.149,392.508,234.5,393.293,236.008Z" transform="translate(-312.68 -179.611)" fill="#fff"/>
      </g>
      <path id="パス_1689" data-name="パス 1689" d="M346.46,438.089c-126.714,10.5-201.881,16.491-234.826,18.78h-.007c-25.226,1.753-33.379,3.055-64.353,6.3h0S21.4,466.4,13.719,465.439a2.3,2.3,0,0,1-1.513-.7,2.133,2.133,0,0,1-.344-1.93,2.513,2.513,0,0,1,1.061-1.326c1.886-1.265,5.619.233,9.107.929a27.1,27.1,0,0,0,7.6.4c21.762-1.992,26.927-2.468,26.968-2.476h0q60.063-5.365,120.159-10.212,84.78-6.839,169.651-12.646l.574.258-.525.36Z" transform="translate(-10.196 -378.912)" fill="#fff"/>
    </g>
  </g>
</svg>
