<?xml version="1.0" encoding="UTF-8"?>
<svg id="_レイヤー_2" data-name="レイヤー 2" xmlns="http://www.w3.org/2000/svg" viewBox="0 0 2516.12 776.42">
  <defs>
    <style>
      .cls-1 {
        fill: #c35a57;
      }
    </style>
  </defs>
  <g id="_レイヤー_1-2" data-name="レイヤー 1">
    <g>
      <g>
        <path class="cls-1" d="M964.05,753.49c-11.83-9.97-18.65-21.54-19.88-35.86-2.37-29.77,22.63-51.84,49.72-53.57,30.76-1.96,55.17,16.98,57.19,48.85.74,19.16-4.7,39.34-24.27,58.67l-9.85-3.85c18.31-19.09,25.16-37.12,24.05-54.66-1.24-19.44-14.61-41-46.03-39.48-26.32,1.35-43.38,22.44-41.25,43.43.91,9.22,4.23,16.21,10.18,21.76l34.7-38.21,6.54,7.27c-23.21,25-37.1,40.6-41.1,45.66Z"/>
        <path class="cls-1" d="M1143.92,708.14c-11.02,2.78-18.49,3.58-23.75,3.91l-3.9-61.36,10.04-.64,3.24,51c4.3-.27,8.27-.85,14.22-2.82l.15,9.91ZM1164.74,776.42l-9.8-3.06c18.33-26.29,24.75-56.3,22.62-89.77-.71-11.16-2.71-24.95-5.34-41.27l9.83-1.42c3.11,16.28,4.82,30.58,5.63,43.33,2.18,34.27-3.77,66.49-22.94,92.19Z"/>
        <path class="cls-1" d="M1341.64,676.85l-9.79-3.06c3.63-5.83,6.73-12.43,9.44-20.12l-61.36,3.9-.64-10.04,75.39-4.79c-1.06,8.55-7.67,25.29-13.03,34.11ZM1361.33,747.44c-9.94,2.23-19.45,3.64-28.54,4.21-14.82.94-26.42-.24-33.84-3.77-10.69-4.6-16.08-13.86-16.14-27.3l9.56-.61c-.63,10.28,4.29,17.17,13.29,20.28,5.73,2.04,14.55,2.28,26.82,1.5,6.85-.44,16.37-1.84,27.74-4.16.05.8,1.04,8.74,1.11,9.85Z"/>
        <path class="cls-1" d="M1442.2,723.1c-11.83-9.97-18.65-21.54-19.88-35.86-2.37-29.77,22.63-51.84,49.72-53.57,30.76-1.96,55.17,16.98,57.19,48.85.74,19.16-4.7,39.34-24.28,58.67l-9.85-3.85c18.31-19.09,25.16-37.12,24.05-54.66-1.24-19.44-14.61-41-46.04-39.48-26.32,1.35-43.38,22.44-41.25,43.43.91,9.22,4.23,16.21,10.18,21.76l34.7-38.21,6.54,7.27c-23.21,25-37.1,40.6-41.1,45.66Z"/>
        <path class="cls-1" d="M1679.34,722.91c-5.58.35-32.19,2.05-80.01,5.08l-.61-9.56,69.65-4.43c-.16-22.71-.22-48.79-2.22-80.19l-73.79,4.69-.61-9.56c.8-.05,84.15-5.35,84.15-5.35,1.52,23.91,2.82,56.95,3.43,99.32Z"/>
        <path class="cls-1" d="M1838.73,712.78c-5.58.35-32.19,2.05-80.01,5.08l-.61-9.56,69.65-4.43c-.16-22.71-.22-48.79-2.22-80.19l-73.79,4.69-.61-9.56c.8-.05,84.15-5.35,84.15-5.35,1.52,23.91,2.82,56.95,3.43,99.31Z"/>
        <path class="cls-1" d="M1949.84,622.99l-26.62,1.69c-1.75,17.71-3.94,38.66-10.88,62.94l-10.45-.78c6.98-23.65,9.75-43.02,11.77-61.56l-21.52,1.37-.64-10.04,22.63-1.44c.8-7.57,1.09-15.59,1.33-24.41l9.95.49c-.31,7.7-.68,14.44-1.24,23.28l25.02-1.59.64,10.04ZM1994.77,718.07c-16.76.59-27.18-4.67-32-17.65l9.07-3.3c3.24,8.12,10.37,12.14,23.12,11.33,4.3-.27,9.53-1.09,14.53-3l.66,10.36c-5.5,1.63-10.26,2.25-15.38,2.26ZM2001.24,663.73l-9.66-.99c2.83-5.78,4.87-11.51,5.43-15.23l-29.49,1.87-.63-9.88,41.44-2.63c-.46,10.43-2.85,18.1-7.09,26.85ZM1992.13,621.1c-4.22-3.41-7.95-6.7-12.13-9.63l5.24-5.61c4.5,2.91,8.37,5.87,11.74,8.54l-4.85,6.71ZM2002.58,609.24c-3.74-3.44-7.95-6.7-12.13-9.63l5.24-5.61c4.51,2.91,8.67,5.53,11.74,8.53l-4.85,6.71Z"/>
        <path class="cls-1" d="M2056.81,686.92l-4.93-77.62,9.56-.61,4.2,66.14c5.82-1.65,12.52-4.48,17.46-7.19l1.88,9.48c-8.19,4.52-17.6,7.52-28.18,9.79ZM2176.3,615.8l-15.62.99c4.4,36.52-1.28,67.93-15.17,93.62l-10.48-1.25c16-30.3,20.41-61.62,15.77-91.73l-38.73,2.46-.64-10.04,38.25-2.43c-1.3-7.92-2.66-16.63-4.86-26.1l9.99-1.43c1.72,9.49,3.59,18.65,4.91,26.89l15.94-1.01.64,10.04Z"/>
        <path class="cls-1" d="M2239.12,672.45c-11.83-9.97-18.65-21.54-19.88-35.86-2.37-29.77,22.63-51.84,49.72-53.57,30.76-1.96,55.17,16.98,57.19,48.85.74,19.16-4.7,39.34-24.27,58.67l-9.85-3.85c18.31-19.09,25.16-37.12,24.05-54.66-1.24-19.44-14.61-41-46.03-39.48-26.32,1.35-43.38,22.44-41.25,43.43.91,9.22,4.23,16.21,10.18,21.76l34.7-38.21,6.54,7.27c-23.21,25-37.1,40.6-41.1,45.66Z"/>
        <path class="cls-1" d="M2363.86,583.07l46.22-2.94.63,9.88-46.22,2.94-.63-9.88ZM2373.02,659.14l37.13-2.36,2.26,35.54-37.13,2.36-2.26-35.54ZM2399.03,615.24l-19.13,1.22-.61-9.56,19.13-1.22.61,9.56ZM2380.09,631.97l19.6-1.25.64,10.04-19.6,1.25-.64-10.04ZM2391.41,570.92l-9.56.61-1.01-15.94,9.56-.61,1.01,15.94ZM2384.2,684.03l17.53-1.11-.98-15.46-17.53,1.11.98,15.46ZM2470.66,621.89l1.72,27.09,16.42-1.04,2.57,40.48-41.92,2.66-2.57-40.48,15.94-1.01-1.72-27.09-40.64,2.58-.64-10.04,40.64-2.58-1.82-28.69,9.56-.61,1.82,28.69,34.75-2.21.64,10.04-34.75,2.21ZM2437.53,583.99l-6.59-8.06c15.94-8.53,27.62-18.56,35.39-29.77l7.9,5.9c-8.04,12.03-20.15,22.88-36.7,31.94ZM2457.52,659.37l1.35,21.2,21.83-1.39-1.35-21.2-21.83,1.39Z"/>
      </g>
      <g>
        <path class="cls-1" d="M1003.61,220.66c3.11,3.21,7.82,13.08,8.15,17.55,1.11,15.3-11.04,64.91-15.66,82.23-7.78,29.18-16.7,59.25-38.78,81.13-9.44,2.36-9.92-14.55-9.33-20.47-50.59-.17-101.26,16.52-147.9,34.74-11.87,4.64-18.76,17.88-34.62,4.83-23.96-19.72-31.8-79.81-34.95-109.9-1.73-16.52-5.15-50.11-4.67-65.23.46-14.41,15.36-22.03,27.25-27.55,54.85-25.46,179.02-31.21,233.86-6.41,4.41,1.99,13.74,6.07,16.65,9.07ZM851.23,215.63c-21.44,2.47-81.49,12.21-91.07,32.52-2.5,5.3-2.89,29.74-2.98,37.3-.2,17.18.52,38.46,2.15,55.52.94,9.81,5.79,54.19,14.56,56.5,47.65-16.26,96.82-31.39,147.4-35.52,9.2-.75,22.06,7.13,31.44-1.55,7.39-5.74,28.86-93.1,31.24-108.18,1.33-8.4,5.33-19.2-.11-26.31-13.57-17.74-109.44-12.95-132.63-10.27Z"/>
        <g>
          <path class="cls-1" d="M2360.98,166.35l-35.75,10.33c-4.71,4.83-1.62,13.09-4.38,19.39-2.81,6.4-20.55,18.45-22.3,28.23-1.1,6.17,2.42,5.1,6.89,3.92,10.98-2.89,23.37-16.87,35.53-20.92,25.72-8.57,50.91,4.23,46.75,33.37-16.12,1.05-16.8-19.54-33.87-17.84-3.08.31-26.27,12.81-29.58,15.27-13.42,9.97-2.12,16.5,6.02,25.88l36.65,3.5c3.53,17.8-26.2,13.34-31.36,23.73l1.65,41.61c31.27-.17,62.21-9.74,93.66-6.02,8.23.97,15.62,3.97,19.24,11.92-53.61,6.44-116.36,13.02-166.32,34.25-13.18,5.6-26.76,23.88-38.87,6-6.26-9.25,9.46-18.22,16.9-22.03,9.83-5.04,38.09-9.92,41.96-13,6.08-4.84,14.83-37.04,4.8-44.05l-41.19,14.88c-4.51.01-15.31-6.44-16.18-10.51-3.06-14.22,51.65-20.92,53.51-32.43l-4.35-13.61c-13.38-3.99-28.7-2.86-35.24-18.38-5.47-13,7.51-20.47,5.98-29.86-1.09-6.71-14.28-13.31-10.85-23.75,3.55-10.82,64.26-32.93,76.14-34.02,8.15-.75,25.29,3.32,24.57,14.17Z"/>
          <path class="cls-1" d="M2434.38,168.41c-9.18,7.53-20.24,2.31-19.23-8.98,1.77-19.83,40.5-56.28,31.52-83.18-3.62-10.55-30.19-8.39-39.6-7.89-35.83,1.9-130.89,22.57-159.96,42.06-12.81,8.59-20.97,24.81-34.12,34.22.96,11.9-2.94,23.44-3.67,35.02-.45,7.11,5.24,26.54-1.52,28.26-4.67.3-9.61-1.45-13.07-4.52-18.37-16.33-4.41-100.1,6.24-122.76,12.5-7.94,24.45,10.11,27.74,10.47,1.72.19,22.88-7.14,24.57-8.7,10.9-10,6.05-78.81,17.45-82.23,3.76-1.13,16.96,3.02,18.54,7.62,6.11,12.05-14.46,58.93-.65,63.26,45.94-5.88,92.03-23.18,138.96-17.35,48.9,6.07,50.67,37.12,31.95,76.04-2.73,5.69-21.67,35.78-25.17,38.65Z"/>
        </g>
        <path class="cls-1" d="M260.51,451.59l17.4,9.57c-21.27,18.73-51.56,10.04-77.08,13.1-48.65,5.84-106.68,22.99-145.4,53.13-7.25-.03-26.6-12.95-21.27-21.18,12.61-19.49,102.74-45.64,127.49-49.47,11.74-1.82,63-2.01,67.68-8.14l26.63-181.77c-2.11-6.96-13-8.99-19.42-9.74-58.14-6.8-146.96,11.41-198.04,40.36-17.89,10.14-26.61,30.01-38.49-7.77,22.44-4.85,40.94-21.49,64.02-28.09,51.3-14.65,102.75-27.29,157.95-22.44,35.72,3.14,61.4,8.51,59.79,48.8-1,25.13-28.15,152.65-21.25,163.63Z"/>
        <path class="cls-1" d="M1282.32,244.02c-12.5-12.51-39.19-17.74-54.2-7.05,3.25,31.55-3.43,64.94-20.8,91.95-17.78,27.65-44.48,46.82-73.94,20.99-43.05-37.75,9.17-103.23,49.01-120.21,88.49-37.71,164.73,24.79,123.19,117.27-4.13,9.2-23.44,42.81-34.11,37.29l-5.38-8.46c18.9-33.37,49.32-98.7,16.24-131.78ZM1141.49,343.24c25.43,23.87,58.72-45.86,63.3-64.4,1.5-6.07,6-31.38,1.46-34.55-21.58-15.07-95.66,69.94-64.76,98.94Z"/>
        <g>
          <path class="cls-1" d="M1714.47,129.1c-.53,26.57-45.71,3.61-50.44,28.29-5.59,29.1,6.81,41.67,23.8,62.25,16.12,19.54,35.21,36.76,56.3,50.6,1,11.5-28.33-6.49-30.61-7.96-14.3-9.2-27.68-27.93-39.01-35.27-3.65-2.36-5.91-3.67-10.53-2.82-3.72,63.45,8.84,131.79,3.1,194.75-.69,7.55-1.09,14.11-7.65,19.18l-16.19-16.41-3.05-188.63-9.11,1.87-38.46,78.35c-7.73,2.11-16.31-6.58-17.05-13.77-1.07-10.48,26.59-62.56,33.33-75.45,6.68-12.77,35.12-50.98,30.96-63.34-18.96-16.15-58.51,27.42-67.98-7.83l68.25-19.42,16.31-54.49,16.01,10.54c2.24,9.6-10.87,31.66-1.05,39.56h43.08Z"/>
          <path class="cls-1" d="M1452.13,296.39c-3.59-4.99-13.64-5.75-16.31-17.88-6.57-29.78,35.61-96.16,47.4-125.14l18.38-.03,4.78,4.29c2.66,9.09-17.81,31.27-20,41.95-5.85,28.56-10.84,104.92-5.89,132.34,2.54,14.1,18.08,19.77,17.1,24.44-2.54,12.05-21.61-.4-26.69-5.93-18.06-19.64-11.06-43.35-18.76-54.05Z"/>
        </g>
        <g>
          <path class="cls-1" d="M2053.15,142.47c-3.73-12.12-63.58-1.03-61.94,20.37l5.38,6.32c12.03-1.68,21.45-5.39,34.28-4.45,6.39.47,17.09,2.01,13.34,10.41-3.58,8.03-50.44,7-50.46,28.24,18.39-.53,36.43-10.91,54.69-3.22l1.78,7.7-61.45,27.81c-36.17-26.56-20.56-105.85-12.05-145.85,2.36-11.1,8.6-40.83,13.37-49.02,10.36-17.75,43.93-4.32,42.25,3.59l-23.14,8.11c-14.57,47.6,55.33.26,67.65,36.57l-3.38,115.34-9.43,4.51c-2.14-.57-10.89-9.24-10.89-9.98v-56.46ZM2052.42,94.17c-7.45-7.31-48.94-.72-52.18,10.23l-.58,18.77,50.62-4.36c4.78-6.02,7.98-18.9,2.14-24.64Z"/>
          <path class="cls-1" d="M1889.05,109c2.8,2.4,2.29,9.59,4.04,10.82,3.94,2.76,21.59-3.77,26.31,7.8-19.26,16.2-44.89,10.5-40.29,46.18,4.53,6.2,23.61-.64,32.8-.17,11.83.61,36.21,6.26,33.73,21.64-.8,4.96-14.21,29.55-18.54,32.11-6.93,4.1-13.34,1.74-19.61,4.16-15.18,5.84-22.36,13.51-34.48,22.02-3.6,2.53-10.27,2.12-12.23,4.08-2.49,2.49-.04,11.35-7.74,10.8-17.45-1.25-33.33-64.44-22.3-79.51,34.22,7.55,38.9-44.04,1.49-24.76l-10.65-12.43c18.1-18.88,46.34-11.99,47.54-46.25,1.54-1.36,17.87,1.74,19.93,3.51ZM1919.39,194.58c-24.48-5.41-61.77,6.46-68.26,34.01,3.65,4.68,3.7,4.43,8.99,3.17,9.53-2.26,25.31-10.96,35.62-14.96,12.54-4.88,23.85-1.31,23.65-22.22Z"/>
          <path class="cls-1" d="M1895,305.13c2.08,2.44,2.58,5.42,2.16,8.53-2.35,17.15-14,37.54-15.95,57.97-1.34,13.98,1.62,24.1,1.95,36.21.35,13.03-8.23,10.38-15.73,3.59-16.75-15.16-10.49-51.01-5.24-70.7,1.68-6.29,11.18-32.44,14.22-36.34,4.41-5.67,12.8-.87,18.59.75Z"/>
          <path class="cls-1" d="M1981,284.5c6.17,4.95,14.2,19.23,23.14,25.85,9.78,7.25,41.94,21.84,53.33,20.72,3.02-.3,33.05-18.74,27.23,3.13-6.2,23.32-53.48,6.19-68.26-.5-22.71-10.28-45.08-30.35-55.38-53.03,6.65-.09,14.33-.68,19.95,3.83Z"/>
          <path class="cls-1" d="M1901.63,75.6c-18.05-6.51-72.85,65.96-83.16,56.46,5.09-11.5,15.51-24.73,23.83-34.07,7.87-8.84,31.59-33.7,42.9-33.94,4.7-.1,21.35,6.29,16.43,11.56Z"/>
          <path class="cls-1" d="M2112.56,280.66l-12.15-1.88c-6.5-13.37-10.86-24.31-8.64-39.75,34.9-2.11,19.91,18.62,20.79,41.63Z"/>
          <path class="cls-1" d="M2055.39,260.6c1.21,1.17,9.68,19.54,9.75,21.38-15.37,11.94-28.59-9.58-29.84-23.59.28-3.66,16.69-1.08,20.1,2.21Z"/>
        </g>
        <path class="cls-1" d="M602.26,421.33l16.22,10.69c-22.2,16.59-51.04,5.75-76.16,6.74-47.88,1.89-105.79,14.06-145.89,40.41-7.06-.59-24.91-14.71-19.08-22.31,13.82-18.01,103.72-36.45,128.14-38.25,11.59-.85,61.57,2.97,66.61-2.64l40.18-175.1c-1.51-6.95-11.96-9.78-18.17-11.01-56.14-11.18-144.14-.38-196.2,23.85-18.23,8.48-28.28,27.17-36.91-10.58,22.25-2.98,41.59-17.75,64.6-22.37,51.15-10.27,102.3-18.56,155.72-9.52,34.58,5.85,59.18,13.1,54.46,52.25-2.94,24.42-39.39,146.6-33.52,157.84Z"/>
      </g>
      <path class="cls-1" d="M2512.19,442.09c-946.66,78.48-1508.22,123.2-1754.35,140.3,0,0-.05,0-.05,0-188.46,13.1-249.37,22.82-480.77,47.08h0s-193.29,24.16-250.69,16.95c-3.07-.39-8.05-1.38-11.3-5.26-3.28-3.9-3.98-9.74-2.57-14.42,1.73-5.75,6.37-8.86,7.93-9.91,14.09-9.45,41.98,1.74,68.04,6.94,13.01,2.59,32.24,5.02,56.81,2.97,162.58-14.88,201.17-18.44,201.47-18.5,0,0,0,0,0,0,299.15-26.72,598.38-52.15,897.69-76.29,422.25-34.06,844.73-65.55,1267.44-94.48,1.43.64,2.86,1.28,4.29,1.93-1.31.9-2.61,1.79-3.92,2.69Z"/>
    </g>
  </g>
</svg>